# xmcd
#
# Track frame offsets:
#	150
#	19747
#	33762
#	55110
#	67147
#	81492
#	102257
#	123357
#	143967
#	155062
#	172595
#	191990
#	207237
#
# Disc length: 2939 seconds
#
# Revision: 2
# Processed by: cddbd v1.5.1PL0 Copyright (c) Steve Scherf et al.
# Submitted via: MusicWizard 7.1.1b
#
DISCID=b50b790d
DTITLE=Various Artist - Johnny's Blues - A Tribute To Johnny Cash
DYEAR=2003
DGENRE=Country-Blues
TTITLE0=Paul Reddick - Train Of Love
TTITLE1=Clarence "Gatemouth" Brown With Benjy Davis- - Get Rhythm
TTITLE2=Maria Muldaur - Walking The Blues
TTITLE3=Chris Thomas King - Rock Island Line
TTITLE4=Garland Jeffreys - I Walk The Line
TTITLE5=Blackie and The Rodeo Kings - Polson Prison Blues
TTITLE6=Harry Manx - Long Black Veil
TTITLE7=Alvin Youngblood Hart - Sunday Mornin Comin Down
TTITLE8=Sleepy Labeef - Frankie's Man Johnny
TTITLE9=Corey Harris - Redemption
TTITLE10=Kevin Breit - Send A Picture Of Mother
TTITLE11=Colin Linden - Big River
TTITLE12=Mavis Staples - Will The Circle Be Unbroken
EXTD=(c)2003 NorthernBlues Music Canada, upc 809509001729
EXTT0=
EXTT1=
EXTT2=
EXTT3=
EXTT4=
EXTT5=
EXTT6=
EXTT7=
EXTT8=
EXTT9=
EXTT10=
EXTT11=
EXTT12=
PLAYORDER=
